<?xml version="1.0" encoding="UTF-8" standalone="no"?>
<!DOCTYPE svg PUBLIC "-//W3C//DTD SVG 1.1//EN" "http://www.w3.org/Graphics/SVG/1.1/DTD/svg11.dtd">
<svg width="100%" height="100%" viewBox="0 0 1024 1024" version="1.1" xmlns="http://www.w3.org/2000/svg" xmlns:xlink="http://www.w3.org/1999/xlink" xml:space="preserve" xmlns:serif="http://www.serif.com/" style="fill-rule:evenodd;clip-rule:evenodd;stroke-linejoin:round;stroke-miterlimit:2;">
    <g transform="matrix(17.2827,0,0,17.2827,-41.0464,-41.0464)">
        <path d="M32,2.375C48.35,2.375 61.625,15.65 61.625,32C61.625,48.35 48.35,61.625 32,61.625C15.65,61.625 2.375,48.35 2.375,32C2.375,15.65 15.65,2.375 32,2.375ZM32,7.12C18.268,7.12 7.12,18.268 7.12,32C7.12,45.732 18.268,56.88 32,56.88C45.732,56.88 56.88,45.732 56.88,32C56.88,18.268 45.732,7.12 32,7.12Z" style="fill:rgb(242,94,13);"/>
    </g>
    <g transform="matrix(11.7468,0,0,11.7468,136.101,136.101)">
        <path d="M5.82,28.51C4.985,28.51 4.197,28.127 3.68,27.471C3.164,26.816 2.976,25.96 3.172,25.148C5.434,15.612 12.31,7.854 21.308,4.366C22.146,4.04 23.091,4.149 23.833,4.657C24.575,5.164 25.019,6.006 25.019,6.905C25.019,12.045 25.019,21.226 25.019,25.786C25.019,26.508 24.732,27.201 24.222,27.712C23.711,28.223 23.018,28.51 22.295,28.51L5.82,28.51ZM32,5.235C32,4.465 32.326,3.73 32.898,3.213C33.47,2.697 34.234,2.447 35.001,2.525C42.278,3.259 48.782,6.631 53.539,11.668C54.109,12.275 54.371,13.108 54.249,13.931C54.128,14.754 53.637,15.477 52.917,15.893C48.745,18.302 40.893,22.835 36.086,25.611C35.243,26.097 34.205,26.097 33.362,25.611C32.519,25.124 32,24.225 32,23.251L32,5.235ZM56.418,21.933C57.141,21.515 58.015,21.452 58.79,21.762C59.565,22.071 60.156,22.719 60.392,23.519C61.194,26.207 61.625,29.053 61.625,32C61.625,34.947 61.194,37.793 60.391,40.48C60.155,41.28 59.564,41.928 58.79,42.237C58.015,42.547 57.141,42.484 56.418,42.067C52.953,40.067 47.035,36.65 43.067,34.359C42.224,33.873 41.705,32.973 41.705,32C41.705,31.027 42.224,30.127 43.067,29.641C47.035,27.35 52.953,23.933 56.418,21.933ZM52.917,48.107C53.638,48.523 54.129,49.245 54.25,50.069C54.371,50.892 54.109,51.726 53.539,52.332C48.782,57.369 42.278,60.741 35.001,61.475C34.234,61.553 33.47,61.303 32.899,60.786C32.327,60.27 32,59.535 32,58.765C32,54.399 32,46.024 32,40.749C32,39.775 32.519,38.876 33.362,38.389C34.205,37.903 35.243,37.903 36.086,38.389C40.893,41.165 48.745,45.698 52.917,48.107ZM25.019,57.095C25.019,57.994 24.576,58.836 23.833,59.343C23.091,59.851 22.146,59.96 21.308,59.634C12.31,56.146 5.434,48.388 3.173,38.852C2.977,38.041 3.165,37.185 3.681,36.529C4.197,35.874 4.986,35.491 5.82,35.491C10.258,35.49 18.146,35.49 22.295,35.49C23.018,35.49 23.711,35.777 24.222,36.288C24.732,36.799 25.019,37.492 25.019,38.214L25.019,57.095Z" style="fill:rgb(242,94,13);"/>
    </g>
</svg>
